<?xml version="1.0" encoding="utf-8"?>
<!-- Generator: Adobe Illustrator 27.1.1, SVG Export Plug-In . SVG Version: 6.00 Build 0)  -->
<svg version="1.1" id="레이어_1" xmlns="http://www.w3.org/2000/svg" xmlns:xlink="http://www.w3.org/1999/xlink" x="0px"
	 y="0px" viewBox="0 0 500 500" style="enable-background:new 0 0 500 500;" xml:space="preserve">
<style type="text/css">
	.st0{fill:#FED3A8;}
	.st1{fill:#FFFFFF;}
	.st2{clip-path:url(#SVGID_00000167367526050352216870000012556569692550947975_);}
	.st3{fill:#F9AE74;}
	.st4{clip-path:url(#SVGID_00000060029593596657525440000007898400131878130858_);}
	.st5{fill:#43DAA5;}
	.st6{fill:#1B6F62;}
	.st7{fill:#4998B6;}
	.st8{clip-path:url(#SVGID_00000144332409257070977640000014321987755747812240_);}
	.st9{fill:#6DCFFF;}
	.st10{clip-path:url(#SVGID_00000070097401570405072870000005718143752248021180_);}
	.st11{fill:#C3FCFF;}
</style>
<g>
	<g>
		<g>
			<path d="M111.2,238.3c-16.8,0-30.5-13.7-30.5-30.5s13.7-30.5,30.5-30.5s30.5,13.7,30.5,30.5S128,238.3,111.2,238.3z M111.2,188.3
				c-10.8,0-19.5,8.8-19.5,19.5c0,10.8,8.8,19.5,19.5,19.5s19.5-8.8,19.5-19.5C130.7,197.1,122,188.3,111.2,188.3z"/>
		</g>
		<g>
			<path d="M388.8,238.3c-16.8,0-30.5-13.7-30.5-30.5s13.7-30.5,30.5-30.5c16.8,0,30.5,13.7,30.5,30.5S405.6,238.3,388.8,238.3z
				 M388.8,188.3c-10.8,0-19.5,8.8-19.5,19.5c0,10.8,8.8,19.5,19.5,19.5c10.8,0,19.5-8.8,19.5-19.5
				C408.3,197.1,399.5,188.3,388.8,188.3z"/>
		</g>
	</g>
	<g>
		<path d="M258.8,131.4h-17.6c-12.5,0-22.7-10.2-22.7-22.7V72.1c0-12.5,10.2-22.7,22.7-22.7h17.6c12.5,0,22.7,10.2,22.7,22.7v36.7
			C281.5,121.2,271.3,131.4,258.8,131.4z M241.2,60.3c-6.5,0-11.7,5.3-11.7,11.7v36.7c0,6.5,5.3,11.7,11.7,11.7h17.6
			c6.5,0,11.7-5.3,11.7-11.7V72.1c0-6.5-5.3-11.7-11.7-11.7H241.2z"/>
	</g>
	<g>
		<path class="st0" d="M384.5,114L254.1,84.6c-2.7-0.6-5.5-0.6-8.1,0L115.5,114c-9.2,2.1-15.4,10.8-14.3,20.2l34.5,281.7
			c0,0.2-0.1,0.4-0.1,0.6c0,9.3,51.2,28.7,114.4,28.7s114.4-19.4,114.4-28.7c0-0.2-0.1-0.4-0.1-0.6l34.5-281.7
			C399.9,124.8,393.8,116.1,384.5,114z"/>
	</g>
	<g>
		<g>
			<path class="st1" d="M250,278.5c15.7,0,28.5-12.8,28.5-28.5h-57C221.5,265.7,234.3,278.5,250,278.5z"/>
			<path d="M250,283.9c-18.7,0-34-15.2-34-34c0-3,2.5-5.5,5.5-5.5h57c3,0,5.5,2.5,5.5,5.5C284,268.7,268.7,283.9,250,283.9z
				 M227.6,255.4c2.5,10.1,11.6,17.6,22.4,17.6c10.8,0,19.9-7.5,22.4-17.6H227.6z"/>
		</g>
	</g>
	<g>
		<g>
			<circle cx="219.2" cy="219.3" r="12.2"/>
		</g>
		<g>
			<circle cx="280.8" cy="219.3" r="12.2"/>
		</g>
	</g>
	<g>
		<defs>
			<path id="SVGID_1_" d="M384.5,114L254.1,84.6c-2.7-0.6-5.5-0.6-8.1,0L115.5,114c-9.2,2.1-15.4,10.8-14.3,20.2l34.5,281.7
				c0,0.2-0.1,0.4-0.1,0.6c0,9.3,51.2,28.7,114.4,28.7s114.4-19.4,114.4-28.7c0-0.2-0.1-0.4-0.1-0.6l34.5-281.7
				C399.9,124.8,393.8,116.1,384.5,114z"/>
		</defs>
		<clipPath id="SVGID_00000083805985241507525230000002219734877339283589_">
			<use xlink:href="#SVGID_1_"  style="overflow:visible;"/>
		</clipPath>
		<g style="clip-path:url(#SVGID_00000083805985241507525230000002219734877339283589_);">
			<path class="st3" d="M250,182.7c69,0,128.1-15.9,153.2-29.5c-0.7-8.1-6.6-7.7-14.8-9.6l-134.2-30.3c-2.8-0.6-5.6-0.6-8.4,0
				l-134.2,30.3c-8.2,1.9-14,1.5-14.8,9.6C121.9,166.8,181,182.7,250,182.7z"/>
		</g>
		<g style="clip-path:url(#SVGID_00000083805985241507525230000002219734877339283589_);">
			<defs>
				<path id="SVGID_00000158724041637904308710000013210919667828503440_" d="M250,182.7c69,0,128.1-15.9,153.2-29.5
					c-0.7-8.1-6.6-7.7-14.8-9.6l-134.2-30.3c-2.8-0.6-5.6-0.6-8.4,0l-134.2,30.3c-8.2,1.9-14,1.5-14.8,9.6
					C121.9,166.8,181,182.7,250,182.7z"/>
			</defs>
			<clipPath id="SVGID_00000123437282550306166120000009654087527439464118_">
				<use xlink:href="#SVGID_00000158724041637904308710000013210919667828503440_"  style="overflow:visible;"/>
			</clipPath>
			<g style="clip-path:url(#SVGID_00000123437282550306166120000009654087527439464118_);">
				<g>
					<g>
						<polygon class="st5" points="154.9,140.9 201.2,200.3 252.4,200.3 252.4,140.9 						"/>
						<path d="M252.4,205.8h-51.2c-1.7,0-3.3-0.8-4.3-2.1l-46.4-59.4c-1.3-1.7-1.5-3.9-0.6-5.8c0.9-1.9,2.8-3.1,4.9-3.1h97.5
							c3,0,5.5,2.5,5.5,5.5v59.4C257.9,203.3,255.4,205.8,252.4,205.8z M203.9,194.8h43v-48.5h-80.9L203.9,194.8z"/>
					</g>
					<g>
						<polygon class="st6" points="154.9,140.9 131.7,203.7 201.2,200.3 						"/>
						<path d="M131.7,209.2c-1.7,0-3.4-0.8-4.4-2.2c-1.1-1.5-1.4-3.4-0.7-5.1l23.2-62.9c0.7-1.9,2.3-3.2,4.3-3.5
							c2-0.3,3.9,0.5,5.2,2l46.4,59.4c1.3,1.6,1.5,3.8,0.7,5.6c-0.8,1.9-2.7,3.1-4.7,3.2l-69.6,3.4
							C131.9,209.2,131.8,209.2,131.7,209.2z M156.6,152l-16.9,45.9l50.7-2.5L156.6,152z"/>
					</g>
				</g>
				<g>
					<g>
						<polygon class="st7" points="252.4,149.7 252.4,207.7 368.3,207.7 325.6,149.7 						"/>
						<path d="M368.3,213.2H252.4c-3,0-5.5-2.5-5.5-5.5v-58c0-3,2.5-5.5,5.5-5.5h73.2c1.7,0,3.4,0.8,4.4,2.2l42.8,58
							c1.2,1.7,1.4,3.9,0.5,5.7C372.3,212,370.4,213.2,368.3,213.2z M257.9,202.2h99.6l-34.7-47h-64.9V202.2z"/>
					</g>
					<g>
						<defs>
							<polygon id="SVGID_00000062909758098129423570000004802522272807498637_" points="252.4,149.7 252.4,207.7 368.3,207.7 
								325.6,149.7 							"/>
						</defs>
						<clipPath id="SVGID_00000020386865614432482590000008636023412127225507_">
							<use xlink:href="#SVGID_00000062909758098129423570000004802522272807498637_"  style="overflow:visible;"/>
						</clipPath>
						<g style="clip-path:url(#SVGID_00000020386865614432482590000008636023412127225507_);">
							<polygon class="st9" points="252.4,147.1 291,200.3 336.5,135.8 							"/>
						</g>
						<g style="clip-path:url(#SVGID_00000020386865614432482590000008636023412127225507_);">
							<defs>
								<polygon id="SVGID_00000044890161623998525400000004918888450660080528_" points="252.4,147.1 291,200.3 336.5,135.8 
																	"/>
							</defs>
							<clipPath id="SVGID_00000055673169653818887200000007092092494887397003_">
								<use xlink:href="#SVGID_00000044890161623998525400000004918888450660080528_"  style="overflow:visible;"/>
							</clipPath>
							<g style="clip-path:url(#SVGID_00000055673169653818887200000007092092494887397003_);">
								<rect x="241.3" y="135.8" class="st11" width="99.2" height="23.7"/>
							</g>
						</g>
					</g>
					<g>
						<path d="M368.3,213.2H252.4c-3,0-5.5-2.5-5.5-5.5v-58c0-3,2.5-5.5,5.5-5.5h73.2c1.7,0,3.4,0.8,4.4,2.2l42.8,58
							c1.2,1.7,1.4,3.9,0.5,5.7C372.3,212,370.4,213.2,368.3,213.2z M257.9,202.2h99.6l-34.7-47h-64.9V202.2z"/>
					</g>
				</g>
			</g>
		</g>
		<g style="clip-path:url(#SVGID_00000083805985241507525230000002219734877339283589_);">
			<path d="M250,489.8c-39.6,0-70.1-7.1-84.8-11.4c-17.5-5.1-38.4-13.3-38.4-23.6c0-0.3,0-0.5,0-0.8L91.4,165
				c-1.5-12.5,6.7-24,18.9-26.8L244.6,108c3.5-0.8,7.3-0.8,10.8,0l134.2,30.3c12.3,2.8,20.4,14.3,18.9,26.8l-35.4,289
				c0,0.2,0,0.5,0,0.8c0,10.3-20.9,18.5-38.4,23.6C320.1,482.6,289.6,489.8,250,489.8z M137.9,454.4c5.4,6.7,50,24.4,112.1,24.4
				c62.3,0,107-17.9,112.1-24.5l0-0.8l35.5-289.8c0.8-6.9-3.7-13.2-10.5-14.8L253,118.6c-2-0.4-4-0.4-6,0l-134.2,30.3
				c-6.8,1.5-11.3,7.9-10.5,14.8L137.9,454.4z M362.4,453.9L362.4,453.9L362.4,453.9z M137.6,453.9L137.6,453.9z"/>
		</g>
		<g style="clip-path:url(#SVGID_00000083805985241507525230000002219734877339283589_);">
			<path d="M250,184.1c-55.6,0-98.4-10-118.9-16c-19.6-5.7-52.6-17.3-52.6-31.1c0-0.4,0-0.8,0.1-1.1l-50-407.8
				c-1.9-16.5,8.8-31.7,25-35.3l189.3-42.7c4.7-1,9.6-1.1,14.2,0l189.3,42.7c16.2,3.7,26.9,18.8,25,35.3l-50,407.9
				c0,0.3,0.1,0.7,0.1,1.1c0,13.8-32.9,25.4-52.6,31.1C348.4,174.1,305.6,184.1,250,184.1z M89.6,137c1.8,3.3,15.5,12.5,47.7,21.5
				c19.6,5.5,60.4,14.7,112.8,14.7s93.2-9.2,112.8-14.7c32.2-9,45.8-18.2,47.7-21.5l-0.1-0.5l0.1-1l50.1-408.7
				c1.3-10.9-5.8-20.9-16.5-23.3l-189.3-42.7c-3.1-0.7-6.3-0.7-9.4,0L56-296.5c-10.7,2.4-17.8,12.4-16.5,23.3l50.2,409.7L89.6,137z
				 M89.4,136.7L89.4,136.7z"/>
		</g>
	</g>
	<g>
		<path d="M250,450.6c-38.5,0-68.2-6.9-82.4-11.1c-17.1-5-37.5-13-37.5-23.1c0-0.3,0-0.5,0-0.8L95.7,134.9
			c-1.4-12.2,6.5-23.5,18.5-26.2l130.5-29.4c3.4-0.8,7.1-0.8,10.6,0l130.5,29.4c12,2.7,20,14,18.5,26.2l-34.4,280.9
			c0,0.2,0,0.5,0,0.7c0,10.1-20.4,18.1-37.5,23.1C318.2,443.7,288.5,450.6,250,450.6z M141.2,416c5.4,6.5,48.7,23.7,108.8,23.7
			c60.3,0,103.7-17.3,108.8-23.7l0-0.7l34.5-281.7c0.8-6.6-3.6-12.7-10.1-14.2L252.9,89.9c-1.9-0.4-3.9-0.4-5.7,0l-130.5,29.4
			c-6.5,1.5-10.8,7.6-10.1,14.2L141.2,416z M359.1,415.5L359.1,415.5L359.1,415.5z M140.9,415.5L140.9,415.5z"/>
	</g>
	<g>
		<g>
			<g>
				<path d="M174.9,412.7c-2.6,0-4.9-1.9-5.4-4.6l-24.7-144.4c-0.5-3,1.5-5.8,4.5-6.3c3-0.5,5.8,1.5,6.3,4.5l24.7,144.4
					c0.5,3-1.5,5.8-4.5,6.3C175.5,412.7,175.2,412.7,174.9,412.7z"/>
			</g>
			<g>
				<path d="M212.6,416.6c-2.7,0-5.1-2.1-5.4-4.8l-14.5-124.6c-0.3-3,1.8-5.7,4.8-6.1c3-0.3,5.7,1.8,6.1,4.8L218,410.5
					c0.3,3-1.8,5.7-4.8,6.1C213,416.6,212.8,416.6,212.6,416.6z"/>
			</g>
			<g>
				<path d="M325.1,412.7c-0.3,0-0.6,0-0.9-0.1c-3-0.5-5-3.3-4.5-6.3l24.7-144.4c0.5-3,3.4-5,6.3-4.5c3,0.5,5,3.3,4.5,6.3
					l-24.7,144.4C330,410.8,327.7,412.7,325.1,412.7z"/>
			</g>
			<g>
				<path d="M287.4,416.6c-0.2,0-0.4,0-0.6,0c-3-0.3-5.2-3.1-4.8-6.1l14.5-124.6c0.3-3,3.1-5.1,6.1-4.8c3,0.3,5.2,3.1,4.8,6.1
					l-14.5,124.6C292.5,414.5,290.2,416.6,287.4,416.6z"/>
			</g>
		</g>
		<g>
			<path d="M250.3,418.2c-3,0-5.5-2.5-5.5-5.5v-94.8c0-3,2.5-5.5,5.5-5.5c3,0,5.5,2.5,5.5,5.5v94.8
				C255.8,415.7,253.4,418.2,250.3,418.2z"/>
		</g>
	</g>
</g>
</svg>
